<svg xmlns="http://www.w3.org/2000/svg" height="512" width="512" xmlns:v="https://vecta.io/nano"><path d="M155.028 355.114l-20.298 1L95.376 469.17c-1.254 3.6 1.664 7.284 5.457 6.886l55.163-5.776c1.54-.16 3.073.372 4.18 1.455l39.655 38.78c2.726 2.666 7.3 1.59 8.553-2l39.61-113.805-11.68-11.336z" fill="#ff4755"/><path d="M247.996 394.7L256 371.704l-113.3-38.526-7.98 22.927c32.17 22.955 71.122 37.007 113.266 38.594z" fill="#fc2b3a"/><path d="M356.972 355.114l20.298 1 39.354 113.066c1.254 3.6-1.664 7.284-5.457 6.886l-55.163-5.776c-1.54-.16-3.073.372-4.18 1.455l-39.655 38.78c-2.726 2.666-7.3 1.59-8.553-2L264.005 394.7l11.68-11.336z" fill="#ff4755"/><path d="M264.004 394.7L256 371.704l113.3-38.526 7.98 22.927c-32.17 22.955-71.122 37.007-113.266 38.594z" fill="#fc2b3a"/><path d="M256 360.116c-185.852 0-185.774-180.53-185.62-183.632C75.26 78.194 156.498 0 256 0s180.74 78.194 185.62 176.485c.154 3.103.232 183.63-185.62 183.63z" fill="#ffe27a"/><path d="M256 352.97c-99.502 0-180.738-78.194-185.618-176.485-.154 3.103-.234 6.226-.234 9.367 0 102.643 83.21 185.852 185.852 185.852s185.852-83.21 185.852-185.852c0-3.142-.08-6.264-.234-9.367-4.88 98.29-86.116 176.485-185.618 176.485z" fill="#f9cf58"/><path d="M256 320.126c-146.117 0-146.313-143.682-146.117-146.78C114.714 96.85 178.286 36.302 256 36.302S397.286 96.85 402.117 173.346c.196 3.097 0 146.78-146.117 146.78z" fill="#ffba57"/><path d="M256 313.53c-77.713 0-141.274-60.55-146.105-137.045a148.28 148.28 0 0 0-.307 9.367c0 80.86 65.55 146.412 146.412 146.412s146.412-65.55 146.412-146.412c0-3.148-.11-6.27-.307-9.367C397.274 252.98 333.713 313.53 256 313.53z" fill="#ffac3e"/><path d="M264.35 272.82a18.41 18.41 0 0 1-18.406-18.406v-103.15s-11.013 11.045-24.2 4.418c-10.274-5.167-10.274-18.466-10.274-18.466l22.693-38.306c3.314-5.594 9.334-9.025 15.836-9.025h14.34a18.41 18.41 0 0 1 18.406 18.406v146.124a18.41 18.41 0 0 1-18.406 18.406z" fill="#ffe27a"/><path d="M243.415 136.8c-4.885 8.247-15.272 11.823-23.935 7.718-3.506-1.66-6.2-4.242-8.006-7.3a18.41 18.41 0 0 0 6.166 25.024c8.776 5.42 20.503 2.184 25.76-6.7l2.546-4.3v-13.77c0-1.382-1.825-1.88-2.53-.7zm20.935 126.285a18.41 18.41 0 0 1-18.406-18.406v18.735a18.41 18.41 0 0 0 18.406 18.406 18.41 18.41 0 0 0 18.406-18.406V244.68a18.41 18.41 0 0 1-18.406 18.406z" fill="#f9cf58"/></svg>