<svg xmlns="http://www.w3.org/2000/svg" viewBox="0 0 508 508" xmlns:v="https://vecta.io/nano"><circle cx="253.55" cy="201.7" r="201.7" fill="#ffd15c"/><path d="M90.15 319.7L20.75 440l81-4.3 36.8 72.3 64.2-111.3c-46-11.9-85.5-39.6-112.6-77zm327.2-.6c-26.9 37.5-66.4 65.3-112.3 77.4l64.4 111.5 36.8-72.3 81 4.3-69.9-120.9z" fill="#40596b"/><circle cx="253.55" cy="201.7" r="146.2" fill="#f8b64c"/><path d="M353.75 185.9c4.5-4.4 2-12.1-4.2-13l-57.7-8.4c-2.5-.4-4.6-1.9-5.7-4.2l-25.8-52.3c-2.8-5.7-10.9-5.7-13.7 0l-25.7 52.3c-1.1 2.2-3.3 3.8-5.7 4.2l-57.7 8.4c-6.2.9-8.7 8.6-4.2 13l41.7 40.7c1.8 1.8 2.6 4.3 2.2 6.7l-9.8 57.4c-1.1 6.2 5.5 11 11.1 8l51.6-27.1c2.2-1.2 4.9-1.2 7.1 0l51.6 27.1c5.6 2.9 12.1-1.8 11.1-8l-9.9-57.4c-.4-2.5.4-5 2.2-6.7l41.5-40.7z" fill="#fff"/></svg>